<?xml version="1.0"?>
<svg xmlns="http://www.w3.org/2000/svg" width="980" height="690" viewBox="0 0 980 690" role="img" aria-labelledby="title desc">
  <title id="title">Post-LN &#x8DEF;&#x5F84;&#x4E2D; Attention&#x3001;&#x6B8B;&#x5DEE;&#x8FDE;&#x63A5;&#x4E0E; LayerNorm &#x7684;&#x804C;&#x8D23;</title>
  <desc id="desc">&#x8F93;&#x5165;&#x5411;&#x91CF;&#x7ECF;&#x8FC7; Attention &#x5F62;&#x6210; f(x)&#xFF0C;&#x540C;&#x65F6;&#x7ECF;&#x6B8B;&#x5DEE;&#x65C1;&#x8DEF;&#x4FDD;&#x7559; x&#x3002;&#x4E24;&#x8DEF;&#x5728;&#x52A0;&#x6CD5;&#x8282;&#x70B9;&#x6C47;&#x5408;&#xFF0C;&#x968F;&#x540E;&#x7531; LayerNorm &#x63A7;&#x5236;&#x5C3A;&#x5EA6;&#x5E76;&#x9001;&#x5F80;&#x4E0B;&#x4E00;&#x5C42;&#x3002;</desc>
  <defs>
    <marker id="a" viewBox="0 0 10 10" refX="8" refY="5" markerWidth="8" markerHeight="8" orient="auto">
      <path d="M0 0 10 5 0 10z" fill="#0F4D92"/>
    </marker>
  </defs>
  <rect width="980" height="690" rx="36" fill="#FFFFFF"/>
  <g font-family="Arial, 'Noto Sans SC', sans-serif">
    <text x="56" y="65" font-size="31" font-weight="700" fill="#17324D">Post-LN&#xFF1A;&#x6DF7;&#x5408;&#x4FE1;&#x606F;&#x3001;&#x4FDD;&#x7559;&#x901A;&#x8DEF;&#x3001;&#x63A7;&#x5236;&#x5C3A;&#x5EA6;</text>
    <text x="56" y="99" font-size="18" fill="#5E7F9C">Attention &#x8D1F;&#x8D23;&#x53D8;&#x6362;&#x4FE1;&#x606F;&#xFF1B;&#x6B8B;&#x5DEE;&#x63D0;&#x4F9B;&#x76F4;&#x63A5;&#x901A;&#x8DEF;&#xFF1B;LayerNorm &#x5728;&#x76F8;&#x52A0;&#x540E;&#x91CD;&#x65B0;&#x5B9A;&#x6807;&#x3002;</text>
  </g>
  <g fill="#EAF3FB" stroke="#0F4D92" stroke-width="3">
    <rect x="325" y="135" width="280" height="68" rx="21"/>
    <rect x="300" y="510" width="330" height="75" rx="22"/>
  </g>
  <g fill="#FFF8D6" stroke="#FFD700" stroke-width="3">
    <rect x="290" y="260" width="350" height="80" rx="22"/>
  </g>
  <g fill="#F6CFCB" stroke="#B64342" stroke-width="3">
    <rect x="278" y="392" width="374" height="78" rx="22"/>
  </g>
  <g fill="none" stroke="#8EB6D8" stroke-width="2">
    <rect x="329" y="139" width="272" height="60" rx="18"/>
    <rect x="304" y="514" width="322" height="67" rx="19"/>
  </g>
  <g fill="none" stroke="#D8A919" stroke-width="2">
    <rect x="294" y="264" width="342" height="72" rx="19"/>
  </g>
  <g fill="none" stroke="#E9A6A1" stroke-width="2">
    <rect x="282" y="396" width="366" height="70" rx="19"/>
  </g>
  <g fill="none" stroke="#0F4D92" stroke-width="4" marker-end="url(#a)">
    <path d="M465 203V250"/>
    <path d="M465 340V382"/>
    <path d="M465 470V500"/>
    <path d="M465 585V635"/>
  </g>
  <path d="M605 135H920V382H662V390" fill="none" stroke="#FFD700" stroke-width="4" stroke-dasharray="11 8" marker-end="url(#a)" data-figure-connector="true"/>
  <path d="M610 173H796V427H666" fill="none" stroke="#D8A919" stroke-width="2" opacity=".8"/>
  <g font-family="Arial, 'Noto Sans SC', sans-serif" text-anchor="middle">
    <g font-size="23" font-weight="700" fill="#0F4D92">
      <text x="465" y="178">&#x8F93;&#x5165; token &#x5411;&#x91CF; x</text>
      <text x="465" y="546">LayerNorm&#xFF1A;&#x63A7;&#x5236;&#x5C3A;&#x5EA6;</text>
    </g>
    <text x="465" y="307" font-size="23" font-weight="700" fill="#765800">Attention&#xFF1A;&#x6DF7;&#x5408;&#x4FE1;&#x606F;</text>
    <text x="465" y="437" font-size="23" font-weight="700" fill="#B64342">Residual&#xFF1A;x + f(x)</text>
    <text x="465" y="571" font-size="17" fill="#5E7F9C">Post-LN&#xFF1A;&#x76F8;&#x52A0;&#x4E4B;&#x540E;&#x518D;&#x5F52;&#x4E00;&#x5316;</text>
    <text x="465" y="663" font-size="21" font-weight="700" fill="#0F4D92">&#x4EA4;&#x7ED9;&#x4E0B;&#x4E00;&#x5C42;</text>
  </g>
  <text x="805" y="290" font-family="Arial, 'Noto Sans SC', sans-serif" font-size="19" font-weight="700" fill="#765800">&#x6B8B;&#x5DEE;&#x65C1;&#x8DEF;&#xFF1A;x</text>
  <text x="490" y="370" font-family="Arial, 'Noto Sans SC', sans-serif" font-size="18" fill="#5E7F9C">f(x)</text>
  <g aria-hidden="true" fill="none" opacity="0" pointer-events="none">
    <rect data-figure-safe-zone="text" x="44.0" y="22.0" width="538.6" height="65.8"/>
    <rect data-figure-safe-zone="text" x="44.0" y="69.0" width="615.5" height="48.3"/>
    <rect data-figure-safe-zone="text" x="453.0" y="149.0" width="168.2" height="47.0"/>
    <rect data-figure-safe-zone="text" x="453.0" y="517.0" width="177.0" height="47.0"/>
    <rect data-figure-safe-zone="text" x="453.0" y="272.0" width="231.0" height="55.0"/>
    <rect data-figure-safe-zone="text" x="453.0" y="402.0" width="227.3" height="55.0"/>
    <rect data-figure-safe-zone="text" x="453.0" y="542.0" width="223.9" height="47.0"/>
    <rect data-figure-safe-zone="text" x="453.0" y="630.0" width="123.8" height="52.4"/>
    <rect data-figure-safe-zone="text" x="793.0" y="259.0" width="116.0" height="49.7"/>
    <rect data-figure-safe-zone="text" x="478.0" y="340.0" width="61.4" height="48.3"/>
  </g>
</svg>
